<?xml version="1.0" standalone="no"?>
<!DOCTYPE svg PUBLIC "-//W3C//DTD SVG 20010904//EN"
 "http://www.w3.org/TR/2001/REC-SVG-20010904/DTD/svg10.dtd">
<svg version="1.0" xmlns="http://www.w3.org/2000/svg"
 width="1024.000000pt" height="1024.000000pt" viewBox="0 0 1024.000000 1024.000000"
 preserveAspectRatio="xMidYMid meet">

<g transform="translate(0.000000,1024.000000) scale(0.100000,-0.100000)"
fill="#000000" stroke="none">
<path d="M4875 8985 c-36 -20 -231 -131 -433 -247 -202 -116 -434 -250 -517
-296 -82 -47 -160 -94 -172 -105 l-23 -20 0 -352 0 -352 -67 -28 c-235 -97
-460 -251 -659 -449 -184 -185 -322 -384 -420 -608 l-46 -104 -462 -269 c-652
-379 -649 -377 -663 -405 -10 -20 -12 -166 -10 -682 l2 -658 25 -24 c14 -14
241 -149 505 -302 264 -152 516 -298 559 -323 l80 -46 37 -100 c68 -181 200
-411 333 -579 321 -410 819 -727 1351 -861 212 -53 358 -69 640 -69 289 -1
435 16 650 74 90 24 115 35 138 60 37 41 36 83 -2 121 -37 36 -64 37 -177 4
-117 -34 -292 -63 -424 -71 l-110 -7 0 311 0 311 73 21 c154 45 244 95 322
183 95 104 134 202 142 354 l6 102 -63 -15 c-265 -62 -411 -203 -466 -451 -11
-46 -22 -83 -27 -83 -4 0 -6 99 -5 221 l3 220 101 33 c55 18 125 46 154 62 77
41 175 136 215 209 44 78 75 197 75 287 l0 69 -47 -7 c-119 -17 -254 -86 -342
-175 -70 -70 -108 -138 -127 -231 -8 -40 -17 -74 -19 -76 -5 -5 -13 100 -21
250 l-6 127 70 20 c114 34 228 97 291 160 102 102 167 271 159 417 -3 59 -3
59 -33 56 -158 -15 -295 -99 -383 -234 -51 -78 -76 -144 -106 -278 -26 -113
-28 -113 -46 -1 -21 124 -71 254 -127 329 -59 79 -210 162 -328 180 l-55 9 0
-76 c1 -283 146 -465 449 -562 l73 -24 -6 -59 c-3 -32 -6 -117 -6 -187 0 -132
-12 -170 -24 -76 -4 28 -23 85 -43 126 -70 146 -221 261 -388 296 -114 24
-108 27 -100 -62 16 -171 72 -303 169 -398 74 -73 156 -117 289 -155 l92 -26
0 -207 c0 -114 -2 -207 -5 -207 -3 0 -13 33 -23 72 -42 171 -145 303 -287 371
-78 37 -178 67 -225 67 l-28 0 6 -92 c11 -164 61 -282 162 -383 76 -75 137
-108 260 -140 54 -14 102 -28 107 -31 4 -3 8 -145 8 -316 l0 -311 -127 6
c-440 20 -897 185 -1258 452 -255 188 -490 464 -633 743 -46 89 -112 242 -112
260 0 4 35 28 77 53 43 26 274 162 513 304 239 142 447 269 463 283 l27 26 0
662 c0 616 -1 663 -17 682 -14 16 -518 318 -1026 615 -79 47 -80 34 4 197 136
264 345 495 606 672 81 54 277 158 299 158 11 0 14 -41 14 -223 0 -201 2 -226
18 -239 15 -14 473 -285 989 -586 122 -72 202 -112 220 -112 39 0 1200 677
1219 711 10 18 13 79 14 237 0 116 3 212 7 212 18 0 228 -119 317 -180 202
-138 356 -292 488 -489 61 -92 168 -294 168 -317 0 -8 -192 -123 -800 -477
-140 -82 -265 -160 -277 -173 l-23 -25 0 -657 c0 -577 2 -660 15 -680 14 -19
254 -166 934 -569 170 -101 233 -133 258 -133 25 0 80 26 201 96 188 108 907
533 964 570 73 47 69 -2 66 727 l-3 657 -25 23 c-14 13 -153 97 -310 187 -157
89 -402 232 -546 317 l-261 154 -37 87 c-190 440 -536 797 -993 1023 l-143 71
0 342 c0 289 -2 345 -15 363 -9 12 -55 44 -103 71 -48 27 -189 110 -312 185
-416 249 -771 447 -802 447 -9 0 -46 -16 -83 -35z m308 -291 c279 -161 707
-417 707 -424 -1 -4 -166 -101 -715 -419 -82 -47 -164 -95 -181 -105 l-32 -19
-198 114 c-337 192 -729 420 -737 428 -9 9 75 60 598 360 182 104 336 188 343
186 7 -3 103 -57 215 -121z m-825 -833 c230 -132 439 -252 465 -268 l46 -28 1
-532 c0 -293 -3 -533 -8 -533 -4 0 -142 79 -307 176 -165 97 -378 221 -472
277 l-173 101 0 529 c0 454 2 528 14 524 8 -3 203 -114 434 -246z m1647 -276
c0 -336 -4 -527 -10 -534 -12 -11 -932 -551 -940 -551 -3 0 -5 239 -5 530 l0
530 56 36 c30 19 207 122 392 228 185 106 371 214 412 239 41 25 80 46 85 46
7 1 10 -180 10 -524z m-2939 -1581 c230 -136 436 -257 458 -270 l38 -22 -168
-100 c-93 -54 -303 -177 -467 -271 l-298 -172 -247 145 c-136 79 -345 203
-465 274 l-218 130 247 143 c137 79 345 201 464 271 118 69 220 125 226 123 6
-2 199 -114 430 -251z m4685 -11 c247 -148 448 -270 449 -273 0 -3 -38 -27
-83 -54 -45 -27 -240 -142 -433 -257 -192 -114 -362 -213 -376 -220 -24 -10
-35 -7 -110 36 -431 247 -815 470 -825 479 -9 8 104 79 450 283 254 150 466
272 471 273 5 0 211 -120 457 -267z m-5828 -621 c177 -103 388 -226 469 -272
l148 -85 0 -532 0 -532 -159 92 c-87 51 -300 175 -474 277 l-316 185 -1 528
c0 290 2 527 5 527 3 0 150 -85 328 -188z m1747 -336 c0 -407 -3 -526 -12
-534 -10 -7 -668 -397 -890 -526 l-48 -28 0 530 0 530 173 101 c94 55 305 179
467 275 162 96 298 174 303 175 4 1 7 -235 7 -523z m2905 336 c143 -82 339
-195 435 -250 l175 -100 5 -536 c3 -295 4 -536 3 -536 -5 0 -186 108 -560 332
l-383 230 0 525 0 525 33 -20 c17 -10 149 -87 292 -170z m1743 -339 l-3 -527
-150 -89 c-170 -101 -675 -399 -747 -441 l-48 -28 0 530 0 530 318 186 c174
102 385 226 467 275 83 50 153 90 158 90 4 1 6 -236 5 -526z"/>
<path d="M4901 5204 c-104 -114 -136 -206 -129 -367 5 -89 8 -104 46 -180 26
-53 59 -100 92 -132 l52 -50 54 59 c100 110 140 224 132 378 -4 68 -12 100
-35 150 -28 60 -135 198 -153 198 -4 0 -31 -25 -59 -56z"/>
<path d="M6800 3515 c-292 -46 -544 -231 -675 -498 -70 -142 -88 -224 -89
-402 -1 -126 3 -163 22 -235 101 -374 410 -637 798 -679 441 -48 854 241 959
671 21 84 10 123 -42 144 -28 12 -38 12 -68 0 -38 -16 -42 -25 -75 -130 -39
-127 -85 -204 -179 -297 -73 -73 -101 -93 -181 -132 -116 -55 -209 -77 -333
-77 -334 0 -624 230 -704 557 -23 97 -21 266 5 365 68 253 262 448 518 519
106 30 265 30 377 0 120 -32 245 -101 338 -188 43 -41 79 -79 79 -84 0 -5 -27
-22 -60 -39 -35 -18 -65 -41 -72 -55 -23 -51 -6 -70 155 -175 163 -107 188
-115 232 -77 24 20 29 38 57 214 17 105 28 203 24 218 -4 14 -18 31 -31 37
-21 9 -34 7 -75 -12 l-50 -23 -92 89 c-181 175 -361 266 -579 294 -104 13
-151 12 -259 -5z"/>
</g>
</svg>
